HIERARCHY
ROOT RootJoint
{
    OFFSET   0.000000   0.000000   0.000000
    CHANNELS 6 Xposition Yposition Zposition Xrotation Yrotation Zrotation
    JOINT pelvis_lowerback
    {
        OFFSET   0.000000   0.093605   0.000000
        CHANNELS 3 Xrotation Yrotation Zrotation
        JOINT lowerback_torso
        {
            OFFSET   0.000000   0.100000   0.000000
            CHANNELS 3 Xrotation Yrotation Zrotation
            JOINT torso_head
            {
                OFFSET   0.000000   0.282350   0.000000
                CHANNELS 3 Xrotation Yrotation Zrotation
                End Site
                {
                    OFFSET   0.000000   0.192650   0.000000
                }
            }
            JOINT rTorso_Clavicle
            {
                OFFSET  -0.001000   0.157500   0.000000
                CHANNELS 3 Xrotation Yrotation Zrotation
                JOINT rShoulder
                {
                    OFFSET  -0.117647   0.000000   0.000000
                    CHANNELS 3 Xrotation Yrotation Zrotation
                    JOINT rElbow
                    {
                        OFFSET  -0.245000   0.000000   0.000000
                        CHANNELS 3 Xrotation Yrotation Zrotation
                        JOINT rWrist
                        {
                            OFFSET  -0.240000   0.000000   0.000000
                            CHANNELS 3 Xrotation Yrotation Zrotation
                            End Site
                            {
                                OFFSET  -0.116353  -0.002500   0.000000
                            }
                        }
                    }
                }
            }
            JOINT lTorso_Clavicle
            {
                OFFSET   0.001000   0.157500   0.000000
                CHANNELS 3 Xrotation Yrotation Zrotation
                JOINT lShoulder
                {
                    OFFSET   0.117647   0.000000   0.000000
                    CHANNELS 3 Xrotation Yrotation Zrotation
                    JOINT lElbow
                    {
                        OFFSET   0.245000   0.000000   0.000000
                        CHANNELS 3 Xrotation Yrotation Zrotation
                        JOINT lWrist
                        {
                            OFFSET   0.240000   0.000000   0.000000
                            CHANNELS 3 Xrotation Yrotation Zrotation
                            End Site
                            {
                                OFFSET   0.116353  -0.002500   0.000000
                            }
                        }
                    }
                }
            }
        }
    }
    JOINT rHip
    {
        OFFSET  -0.100000  -0.051395   0.000000
        CHANNELS 3 Xrotation Yrotation Zrotation
        JOINT rKnee
        {
            OFFSET   0.000000  -0.410000   0.000000
            CHANNELS 3 Xrotation Yrotation Zrotation
            JOINT rAnkle
            {
                OFFSET   0.000000  -0.390000   0.000000
                CHANNELS 3 Xrotation Yrotation Zrotation
                JOINT rToeJoint
                {
                    OFFSET   0.000000  -0.050000   0.130000
                    CHANNELS 3 Xrotation Yrotation Zrotation
                    End Site
                    {
                        OFFSET  -0.010000   0.002000   0.060000
                    }
                }
            }
        }
    }
    JOINT lHip
    {
        OFFSET   0.100000  -0.051395   0.000000
        CHANNELS 3 Xrotation Yrotation Zrotation
        JOINT lKnee
        {
            OFFSET   0.000000  -0.410000   0.000000
            CHANNELS 3 Xrotation Yrotation Zrotation
            JOINT lAnkle
            {
                OFFSET   0.000000  -0.390000   0.000000
                CHANNELS 3 Xrotation Yrotation Zrotation
                JOINT lToeJoint
                {
                    OFFSET   0.000000  -0.050000   0.130000
                    CHANNELS 3 Xrotation Yrotation Zrotation
                    End Site
                    {
                        OFFSET   0.010000   0.002000   0.060000
                    }
                }
            }
        }
    }
}
MOTION
Frames: 17
Frame Time:   0.008333
 -2.376719   0.925631   3.975860   0.000000   0.000000   0.000000   0.000000   0.000000   0.000000   0.000000   0.000000   0.000000   0.000000   0.000000   0.000000   0.000000   0.000000   0.000000   0.000000   0.000000   0.000000   0.000000   0.000000   0.000000   0.000000   0.000000   0.000000   0.000000   0.000000   0.000000   0.000000   0.000000   0.000000   0.000000   0.000000   0.000000   0.000000   0.000000   0.000000   0.000000   0.000000   0.000000   0.000000   0.000000   0.000000   0.000000   0.000000   0.000000   0.000000   0.000000   0.000000   0.000000   0.000000   0.000000   0.000000   0.000000   0.000000   0.000000   0.000000   0.000000   0.000000   0.000000   0.000000
 -2.376791   0.925822   3.974325  -1.077936   0.108960  -0.163623   1.356048   0.042610   0.040011   0.366429  -0.011813   0.202422  -0.142421   0.298626   0.002778   0.036800  -0.531899  -0.170328   0.723191   0.202107   2.290672   0.052464   2.692221  -0.034177   0.316328  -1.415327  -2.438582  -0.680202  -0.322208  -0.192896  -0.402850  -0.322464  -1.670522   0.037804  -2.436582  -0.008355   0.188513   1.891992   2.221676  -0.118974   0.037599   0.103846   2.338942   0.001307   0.002959  -1.467463   0.074206   0.290323  -0.412756   0.000835  -0.000797   0.632637   0.134344   0.248608   2.389835  -0.001622   0.005078  -2.964241   0.209999  -0.021885   0.345183  -0.000193   0.001354
 -2.376827   0.926135   3.972169  -2.329977   0.394093  -0.354641   2.786423  -0.033204   0.105210   0.961043  -0.152265   0.440344  -0.206308   0.597438   0.015313   0.080507  -0.843605   0.266179   1.401361   0.636977   5.031550   0.121723   5.341401  -0.063786   0.673900  -1.931287  -4.248742  -1.327829  -0.988852  -0.943979  -0.814117  -0.944997  -3.676346   0.086781  -4.888525  -0.010477   0.343325   2.807210   3.847936  -0.462558   0.070279   0.162520   4.748459   0.004472   0.008784  -2.828235   0.136928   0.562587  -0.815163   0.001149  -0.001973   1.594248   0.272315   0.581393   5.014780  -0.003438   0.013818  -5.731652   0.412390  -0.034469   0.558086  -0.000378   0.002226
 -2.376754   0.926213   3.969631  -3.567221   0.817075  -0.542336   4.193627  -0.212499   0.198245   1.598954  -0.398214   0.701568  -0.257203   0.877107   0.024639   0.118050  -0.972032   1.127688   1.997995   1.203715   7.924011   0.189571   7.867982  -0.085254   1.041301  -2.013192  -5.312356  -1.948527  -1.878832  -2.045141  -1.235631  -1.728928  -5.844833   0.134629  -7.264243  -0.009102   0.505098   3.124649   4.821358  -1.069459   0.100320   0.148323   6.944734   0.008834   0.015042  -4.098644   0.187767   0.816888  -1.183855   0.001044  -0.003205   2.751424   0.411523   0.958675   7.586398  -0.004424   0.023746  -8.308292   0.603525  -0.038682   0.765575  -0.000590   0.003110
 -2.376546   0.925793   3.966893  -4.745190   1.340470  -0.716677   5.559755  -0.473323   0.322517   2.234361  -0.725964   0.984384  -0.309719   1.137760   0.031111   0.145451  -0.982818   2.245580   2.515694   1.846585  10.848887   0.247780  10.258350  -0.099474   1.410563  -1.862852  -5.821741  -2.553558  -2.899169  -3.348607  -1.670175  -2.596602  -8.072844   0.175421  -9.538797  -0.005436   0.678902   3.074059   5.313164  -1.912235   0.130290   0.057214   8.904019   0.013592   0.020372  -5.288102   0.228240   1.054315  -1.531488   0.000676  -0.004378   4.052780   0.552582   1.366488  10.057952  -0.004401   0.033311 -10.711073   0.783084  -0.035218   0.956596  -0.000785   0.003847
 -2.376200   0.924683   3.964105  -5.851981   1.931235  -0.874355   6.876817  -0.797021   0.479351   2.855314  -1.116161   1.288834  -0.363819   1.380739   0.035738   0.161667  -0.926127   3.506469   2.960369   2.524494  13.732502   0.293003  12.508434  -0.107566   1.774084  -1.587318  -5.950428  -3.150167  -3.983772  -4.753446  -2.117461  -3.496779 -10.291846   0.206757 -11.700532  -0.000319   0.861211   2.793032   5.481952  -2.950087   0.163208  -0.107226  10.644806   0.018105   0.024219  -6.401855   0.259896   1.275968  -1.858504   0.000160  -0.005388   5.468887   0.696288   1.797153  12.424646  -0.003511   0.041608 -12.952397   0.951143  -0.024820   1.130828  -0.000946   0.004387
 -2.375721   0.922742   3.961379  -6.884386   2.559331  -1.015239   8.139109  -1.168027   0.668300   3.457003  -1.552734   1.614444  -0.417262   1.607354   0.039216   0.168217  -0.837986   4.834594   3.339896   3.207400  16.530017   0.324674  14.618687  -0.110542   2.125155  -1.253001  -5.825961  -3.742053  -5.085817  -6.191699  -2.575229  -4.394985 -12.457489   0.228334 -13.744776   0.005548   1.046627   2.369984   5.447039  -4.143680   0.202062  -0.337187  12.190898   0.021939   0.026467  -7.444307   0.284185   1.482930  -2.164067  -0.000408  -0.006168   6.976832   0.843523   2.244052  14.688739  -0.002008   0.048120 -15.043136   1.107970  -0.008248   1.290395  -0.001069   0.004731
 -2.375161   0.919475   3.957847  -7.223852   2.821433  -1.157024   9.046189  -1.387649   0.934801   3.668572  -1.910094   1.778941  -0.531555   1.785284   0.031937   0.176314  -0.714950   5.693728   3.822078   3.825099  19.224099   0.362598  17.295202  -0.120121   2.310743  -1.192234  -5.005789  -4.062264  -5.936488  -6.939272  -3.127646  -5.195775 -14.877382   0.245536 -15.973642   0.014576   1.204992   1.842228   5.021666  -6.434238   0.044822  -0.682809  14.297068   0.027598   0.019892  -7.885005  -0.011319   1.843076  -2.308983  -0.000509  -0.004664   8.109035   1.019236   2.679917  15.424384  -0.002098   0.041260 -16.398910   1.344444  -0.005475   1.689047  -0.001686   0.005930
 -2.374620   0.915083   3.954128  -7.463127   3.093816  -1.288465   9.966359  -1.620971   1.209327   3.842215  -2.249724   1.930557  -0.652574   1.945140   0.024093   0.162433  -0.562435   6.349327   4.233498   4.453404  21.641068   0.378378  19.824415  -0.126030   2.507550  -0.946424  -4.255243  -4.384352  -6.753920  -7.503290  -3.678772  -5.948246 -17.063319   0.250062 -18.072128   0.023703   1.368932   1.211216   4.644551  -8.762106  -0.111878  -1.090494  16.246468   0.031599   0.014083  -8.283674  -0.298947   2.174785  -2.383251  -0.000540  -0.003591   9.116469   1.172417   3.162782  15.882155  -0.002267   0.034728 -17.672778   1.563488   0.003360   2.066301  -0.002322   0.006660
 -2.374115   0.909669   3.950453  -7.667922   3.384709  -1.406951  10.883204  -1.846807   1.479113   4.028473  -2.574263   2.078141  -0.756820   2.093040   0.018354   0.133239  -0.401171   6.865043   4.584538   5.065947  23.825739   0.378858  22.193607  -0.128634   2.703249  -0.651200  -3.667807  -4.713456  -7.543218  -7.944686  -4.228897  -6.656107 -19.047958   0.246504 -20.041794   0.031557   1.534781   0.549344   4.408261 -11.011026  -0.234779  -1.541924  18.030412   0.034093   0.009703  -8.655491  -0.570620   2.481827  -2.451544  -0.000574  -0.002770  10.032909   1.319754   3.684043  16.257906  -0.002459   0.029268 -18.864716   1.768313   0.017142   2.407100  -0.002886   0.007038
 -2.373656   0.903310   3.946948  -7.851314   3.680647  -1.512776  11.776524  -2.056029   1.739719   4.223638  -2.879118   2.219341  -0.843856   2.230895   0.014161   0.095690  -0.245096   7.280488   4.886095   5.650337  25.815989   0.369149  24.408067  -0.128244   2.892498  -0.352021  -3.212624  -5.042813  -8.290836  -8.301699  -4.771901  -7.312205 -20.865464   0.237880 -21.886952   0.037462   1.699209  -0.116068   4.285331 -13.154370  -0.323222  -2.021506  19.672961   0.035335   0.006339  -9.002481  -0.826284   2.766410  -2.517062  -0.000605  -0.002136  10.876880   1.463859   4.230711  16.591046  -0.002651   0.024760 -19.978034   1.959935   0.034949   2.719283  -0.003359   0.007151
 -2.373249   0.896063   3.943680  -8.017885   3.970325  -1.606924  12.633372  -2.245098   1.988100   4.420100  -3.161106   2.351477  -0.917437   2.359603   0.011149   0.055192  -0.101587   7.622543   5.147424   6.200460  27.640173   0.352800  26.475225  -0.125349   3.073289  -0.066797  -2.852948  -5.364960  -8.986974  -8.601092  -5.301321  -7.911260 -22.541823   0.226143 -23.611860   0.041289   1.859439  -0.764799   4.239164 -15.182501  -0.380714  -2.514898  21.192795   0.035544   0.003676  -9.326142  -1.066562   3.030405  -2.579907  -0.000629  -0.001641  11.658943   1.604953   4.791187  16.893794  -0.002821   0.021022 -21.017497   2.138974   0.055955   3.006196  -0.003725   0.007050
 -2.372431   0.893787   3.942475  -8.766415   3.484168  -0.910004  13.741219  -2.177591   1.559032   4.877722  -3.253665   2.163092  -0.974674   2.485182  -0.023959   0.009167   0.104374   8.306721   5.362974   6.764674  29.479100   0.340455  28.390997  -0.119754   3.250363   0.146348  -2.583841  -5.610752  -9.546113  -9.165090  -5.771257  -8.365172 -24.188575   0.218286 -25.170026   0.043517   2.008498  -1.236618   4.314687 -16.427009  -0.314988  -3.554919  22.590808   0.031481  -0.008325  -9.613872  -1.289534   3.273833  -2.545744  -0.000455  -0.001601  12.033351   1.849444   3.996905  18.068858  -0.001450   0.015834 -21.783465   2.217775  -0.224431   3.002348  -0.002993   0.005640
 -2.372306   0.892693   3.942254  -9.113003   3.011854  -0.663155  14.446741  -2.279505   1.509619   5.143115  -3.322416   2.084219  -0.952820   2.578841   0.042535   0.013683   0.293077   8.593654   5.601152   7.382821  31.073959   0.325594  30.514380  -0.112954   3.391926   0.196632  -1.665155  -5.524255  -9.902407  -9.393480  -6.058085  -8.627016 -25.731926   0.212131 -26.915360   0.051406   2.097340  -1.543181   3.778671 -17.778513  -0.327147  -3.981936  23.867020   0.025650  -0.015479  -9.371116  -1.553430   3.349758  -2.343144  -0.000108  -0.002978  12.085857   2.107470   3.651626  18.839440  -0.001045   0.011715 -22.124821   2.349029  -0.221969   2.337225  -0.002676   0.004519
 -2.372680   0.892080   3.942623  -9.266328   2.651420  -0.620397  15.005395  -2.425139   1.594166   5.276009  -3.394082   2.098738  -0.943127   2.657260   0.138250   0.004135   0.443990   8.651803   5.804487   7.947923  32.437757   0.301419  32.512609  -0.103436   3.531366   0.340946  -0.855579  -5.435578 -10.188705  -9.443337  -6.319837  -8.840050 -27.083248   0.199020 -28.545559   0.055796   2.187910  -1.842687   3.228200 -19.064518  -0.372856  -4.147130  25.095162   0.020275  -0.018885  -9.141466  -1.797533   3.425021  -2.144293   0.000007  -0.003761  12.085618   2.337577   3.562110  19.345793  -0.000956   0.008956 -22.420502   2.508758  -0.159519   2.007760  -0.001966   0.003439
 -2.373441   0.891754   3.943388  -9.283624   2.455979  -0.647748  15.469660  -2.600361   1.716945   5.322168  -3.483718   2.153761  -0.941710   2.727219   0.242119  -0.012055   0.559577   8.565600   5.981509   8.453932  33.616098   0.272829  34.376186  -0.093983   3.665484   0.483529  -0.254789  -5.378207 -10.449179  -9.357143  -6.580399  -9.035534 -28.254059   0.182039 -30.071195   0.056941   2.278217  -2.136904   2.831384 -20.240674  -0.428760  -4.238253  26.271563   0.016041  -0.019237  -8.927826  -2.023842   3.498136  -1.973300   0.000047  -0.003898  12.026696   2.581084   3.625201  19.671975  -0.000866   0.007376 -22.688159   2.722002  -0.069049   2.026254  -0.001597   0.002795
 -2.374528   0.891605   3.944460  -9.195158   2.404412  -0.703579  15.862205  -2.781248   1.852064   5.307553  -3.581309   2.221719  -0.943681   2.791487   0.344353  -0.033774   0.649799   8.378989   6.136010   8.909274  34.642867   0.243148  36.112741  -0.085683   3.794963   0.601794   0.166963  -5.352266 -10.691912  -9.172328  -6.842265  -9.220007 -29.273257   0.163483 -31.501161   0.055592   2.368574  -2.438060   2.593869 -21.298788  -0.483282  -4.312135  27.395087   0.012935  -0.017646  -8.728264  -2.233995   3.568190  -1.821722   0.000076  -0.003677  11.909905   2.817629   3.786740  19.872411  -0.000761   0.006267 -22.909121   2.944903   0.034386   2.168361  -0.001538   0.002739
